<svg xmlns="http://www.w3.org/2000/svg" viewBox="0 0 112.38 93.72"><defs><linearGradient id="a" x1="-285.42" y1="1185.21" x2="-285.66" y2="1184.66" gradientTransform="matrix(36.52 0 0 -47.5 10481.94 56294.55)" gradientUnits="userSpaceOnUse"><stop offset="0" stop-color="#ff9640"/><stop offset=".6" stop-color="#fc4055"/><stop offset="1" stop-color="#e31587"/></linearGradient><linearGradient id="b" x1="-285.42" y1="1185.21" x2="-285.66" y2="1184.66" gradientTransform="matrix(36.52 0 0 -47.5 10481.94 56294.55)" gradientUnits="userSpaceOnUse"><stop offset="0" stop-color="#fff36e" stop-opacity=".8"/><stop offset=".09" stop-color="#fff36e" stop-opacity=".7"/><stop offset=".75" stop-color="#fff36e" stop-opacity="0"/></linearGradient><linearGradient id="c" x1="-274.36" y1="1161.46" x2="-274.64" y2="1162.03" gradientTransform="matrix(16.56 0 0 -24.93 4602.37 28977.5)" gradientUnits="userSpaceOnUse"><stop offset="0" stop-color="#b833e1"/><stop offset=".37" stop-color="#9059ff"/><stop offset=".61" stop-color="#5b6df8"/><stop offset="1" stop-color="#0090ed"/></linearGradient><linearGradient id="d" x1="-256.09" y1="1071.3" x2="-256.39" y2="1071.7" gradientTransform="matrix(8.67 0 0 -8.74 2278.35 9391.54)" gradientUnits="userSpaceOnUse"><stop offset="0" stop-color="#722291" stop-opacity=".5"/><stop offset=".5" stop-color="#722291" stop-opacity="0"/></linearGradient></defs><g data-name="Layer 2"><g data-name="Layer 1"><path d="M58.49 17.06zm6-13.3a12.15 12.15 0 0 0-20.93 8.65c0 6.44 9.84 17.42 11 18.65a1.59 1.59 0 0 0 2.69-.6 1.63 1.63 0 0 0-.34-1.57 80.37 80.37 0 0 1-5.17-6.39c-4.32-5.95-5-8.88-5-10.09A9 9 0 0 1 62.23 6a8.8 8.8 0 0 1 2.44 6.5c-.09 2.56-2.64 6.6-5.11 9.71l-.88.93a2 2 0 0 1-2.84-.43c.67.84 1.41 1.73 2.26 2.69a2 2 0 0 0 2.78.19 1.39 1.39 0 0 0 .21-.21c1.56-1.82 6.59-8.12 6.77-12.76a12.06 12.06 0 0 0-3.34-8.86zM57.2 15.23a2.3 2.3 0 0 1 .06-.28z" fill="url(#a)"/><path d="M58.49 17.06zm6-13.3a12.15 12.15 0 0 0-20.93 8.65c0 6.44 9.84 17.42 11 18.65a1.59 1.59 0 0 0 2.69-.6 1.63 1.63 0 0 0-.34-1.57 80.37 80.37 0 0 1-5.17-6.39c-4.32-5.95-5-8.88-5-10.09A9 9 0 0 1 62.23 6a8.8 8.8 0 0 1 2.44 6.5c-.09 2.56-2.64 6.6-5.11 9.71l-.88.93a2 2 0 0 1-2.84-.43c.67.84 1.41 1.73 2.26 2.69a2 2 0 0 0 2.78.19 1.39 1.39 0 0 0 .21-.21c1.56-1.82 6.59-8.12 6.77-12.76a12.06 12.06 0 0 0-3.34-8.86zM57.2 15.23a2.3 2.3 0 0 1 .06-.28z" fill="url(#b)"/><path d="M58.68 23.13a2 2 0 0 1-2.84-.43l-.12-.15c-4.53-5.66-5.35-8.41-5.5-9.4a5.47 5.47 0 0 1 1.34-4.36A5.52 5.52 0 0 1 55.86 7a5.39 5.39 0 0 1 3.9 1.87 5.93 5.93 0 0 1 1.4 4.44 6.06 6.06 0 0 1-1.1 3.12 1.57 1.57 0 0 1-2.2.37 1.51 1.51 0 0 1-.56-.8 1.6 1.6 0 0 1 .27-1.61A3.22 3.22 0 0 0 58 13a2.71 2.71 0 0 0-.64-2 2.25 2.25 0 0 0-1.61-.79 2.33 2.33 0 0 0-1.83.77 2.14 2.14 0 0 0-.54 1.78c.23 1.77 3.21 5.94 6.17 9.46l-.87.94z" fill="url(#c)"/><path d="M53.8 20c.61.87 1.25 1.71 1.92 2.53l.12.15a2 2 0 0 0 2.84.43l.89-.93q-1.83-2.18-3.49-4.45L53.8 20z" fill="url(#d)"/><rect x="43.59" y="81" width="24.28" height="12.72" rx="2.31" fill="#2ac3a2"/><g style=""><g style="" fill="#fff"><path d="M47 84.72h2c1.15 0 1.72.58 1.72 1.37a1.1 1.1 0 0 1-.93 1.12v.05a1.23 1.23 0 0 1 1.13 1.3c0 .83-.59 1.44-1.8 1.44H47zM48.86 87a.79.79 0 0 0 .88-.76c0-.41-.29-.7-.86-.7h-1V87zm.14 2.2c.69 0 1-.29 1-.71a.86.86 0 0 0-1-.83h-1v1.54zM51.72 84.72h3.44v.8h-2.49V87H55v.8h-2.33v1.4h2.51v.8h-3.46z"/></g><path d="M56 84.72h4.22v.8h-1.64V90h-.95v-4.48H56zM60.18 90l1.87-5.28h1.18L65.09 90h-1l-.44-1.3h-2l-.44 1.3zm3.19-2.07l-.71-2.13-.71 2.13z" fill="#fff"/></g><path d="M32.61 42.86h6.58v1.88h-4.6v2.36h4.6V49h-4.6v4.13h-2zM40.39 43.39a1.25 1.25 0 0 1 .35-.9 1.18 1.18 0 0 1 .88-.36 1.16 1.16 0 0 1 .9.36 1.25 1.25 0 0 1 .35.9 1.19 1.19 0 0 1-.35.88 1.15 1.15 0 0 1-.9.35 1.18 1.18 0 0 1-1.23-1.23zm.25 2.13h2v7.56h-2zM44.16 45.52h1.9v1.16a2 2 0 0 1 .82-1 2.47 2.47 0 0 1 1.27-.31 2.75 2.75 0 0 1 1.27.29l-.7 1.91a1.17 1.17 0 0 0-.42-.19 2.16 2.16 0 0 0-.59-.08 1.72 1.72 0 0 0-1.19.41 1.79 1.79 0 0 0-.45 1.37v4h-1.91zM53.55 53.23a4.33 4.33 0 0 1-1.65-.3 3.73 3.73 0 0 1-1.27-.83 3.57 3.57 0 0 1-.8-1.25 4.09 4.09 0 0 1-.28-1.54 4 4 0 0 1 .3-1.54 3.8 3.8 0 0 1 2.09-2.1 4.33 4.33 0 0 1 3.14 0 4 4 0 0 1 1.23.8 3.87 3.87 0 0 1 .81 1.23 4 4 0 0 1 .29 1.55V50h-6a2 2 0 0 0 .76 1.17 2.25 2.25 0 0 0 1.41.43 2.11 2.11 0 0 0 1.13-.28 2 2 0 0 0 .74-.73l1.59.92a4.49 4.49 0 0 1-1.4 1.28 4.25 4.25 0 0 1-2.09.44zm0-6.23a2.06 2.06 0 0 0-1.28.4 2.2 2.2 0 0 0-.77 1.06h4a1.89 1.89 0 0 0-.72-1.09 2.17 2.17 0 0 0-1.27-.37zM58 45.52h1.25v-.27a6.12 6.12 0 0 1 .16-1.54 2.15 2.15 0 0 1 .53-1 2 2 0 0 1 1-.53 6.68 6.68 0 0 1 1.54-.15H63v1.76h-.32a5.35 5.35 0 0 0-.8 0 .85.85 0 0 0-.46.2.64.64 0 0 0-.2.4 4.47 4.47 0 0 0 0 .7v.36H63v1.74h-1.86v5.82h-1.92v-5.75H58zM67.4 53.23a4.17 4.17 0 0 1-1.59-.3 4.06 4.06 0 0 1-1.26-.85 4 4 0 0 1-.84-4.31 3.87 3.87 0 0 1 .84-1.26 4.21 4.21 0 0 1 1.26-.84 4.17 4.17 0 0 1 1.59-.3 4.1 4.1 0 0 1 1.57.3 4 4 0 0 1 1.27.84 3.89 3.89 0 0 1 .85 1.26 3.93 3.93 0 0 1 0 3.06 3.93 3.93 0 0 1-.84 1.25 3.88 3.88 0 0 1-1.27.85 4.15 4.15 0 0 1-1.58.3zm0-1.83a2 2 0 0 0 .81-.17 2.15 2.15 0 0 0 .66-.45 1.91 1.91 0 0 0 .44-.66 2.23 2.23 0 0 0 0-1.66 2 2 0 0 0-.44-.67 2.15 2.15 0 0 0-.66-.45 2 2 0 0 0-1.62 0 2.15 2.15 0 0 0-.66.45 2 2 0 0 0-.44.67 2.23 2.23 0 0 0 0 1.66 1.91 1.91 0 0 0 .44.66 2.15 2.15 0 0 0 .66.45 2 2 0 0 0 .82.17zM74.3 49.2l-2.68-3.68h2.3l1.58 2.24 1.6-2.24h2.27l-2.69 3.7 2.88 3.86h-2.34l-1.73-2.37-1.7 2.37h-2.32zM0 60.89h3.85a4 4 0 0 1 1.53.28 3.33 3.33 0 0 1 2 1.89 3.6 3.6 0 0 1 .27 1.4 3.7 3.7 0 0 1-.27 1.42A3.33 3.33 0 0 1 6.56 67a3.6 3.6 0 0 1-1.18.75 4 4 0 0 1-1.53.28H1.18v3.06H0zM1.18 62v5h2.6a3 3 0 0 0 1.11-.2 2.62 2.62 0 0 0 .83-.53 2.22 2.22 0 0 0 .52-.79 2.46 2.46 0 0 0 .19-1 2.53 2.53 0 0 0-.19-1 2.26 2.26 0 0 0-.52-.8 2.39 2.39 0 0 0-.84-.52A3 3 0 0 0 3.77 62zM9.42 63.55h1.11V65a2.15 2.15 0 0 1 .79-1.15 2.3 2.3 0 0 1 1.36-.39 2.31 2.31 0 0 1 1.26.28l-.47 1.09a1.18 1.18 0 0 0-.39-.17 2.08 2.08 0 0 0-.54-.07 1.9 1.9 0 0 0-1.47.57 2.7 2.7 0 0 0-.51 1.84v4.14H9.42zM15 61.23a.88.88 0 0 1 .25-.65.94.94 0 0 1 1.3 0 1 1 0 0 1 0 1.3.9.9 0 0 1-.66.26.87.87 0 0 1-.64-.26.88.88 0 0 1-.25-.65zm.32 2.32h1.16v7.56h-1.12zM17.88 63.55h1.22l2.43 6.16L24 63.55h1.22l-3.18 7.56h-1.12zM28.63 71.27a3.53 3.53 0 0 1-1.18-.18 2.46 2.46 0 0 1-.84-.48 2 2 0 0 1-.5-.71 2.2 2.2 0 0 1-.17-.86 2.08 2.08 0 0 1 .92-1.81 4.3 4.3 0 0 1 2.51-.64h2.4v-.29a1.84 1.84 0 0 0-.56-1.4 2.33 2.33 0 0 0-1.66-.52 2.85 2.85 0 0 0-1.43.33 2.9 2.9 0 0 0-1 .94l-1-.63a4.05 4.05 0 0 1 3.42-1.62 4.48 4.48 0 0 1 1.43.21 3 3 0 0 1 1 .59 2.68 2.68 0 0 1 .64.92 3.22 3.22 0 0 1 .22 1.18v4.81h-1.06v-1.33a3.39 3.39 0 0 1-1.33 1.09 4.1 4.1 0 0 1-1.81.4zm.21-1a3.61 3.61 0 0 0 .85-.11 4.05 4.05 0 0 0 .81-.33 2.74 2.74 0 0 0 .71-.53 3 3 0 0 0 .56-.74v-1h-2.34a3.29 3.29 0 0 0-1.75.36 1.19 1.19 0 0 0-.56 1.08 1.22 1.22 0 0 0 .41.93 1.92 1.92 0 0 0 1.31.33zM34.05 63.55h1.47v-1.66l1.13-.73v2.39h2.21v1h-2.21v4.25a1.47 1.47 0 0 0 .3 1 1.09 1.09 0 0 0 .79.31 1.22 1.22 0 0 0 .87-.37l.6.91a2.29 2.29 0 0 1-.7.39 2.26 2.26 0 0 1-.85.15 2.13 2.13 0 0 1-1.6-.57 2.6 2.6 0 0 1-.54-1.83v-4.22h-1.47zM43.75 71.27A4.33 4.33 0 0 1 42.1 71a3.79 3.79 0 0 1-1.26-.83A3.73 3.73 0 0 1 40 68.9a4.13 4.13 0 0 1-.28-1.54 4 4 0 0 1 .3-1.56 3.85 3.85 0 0 1 .83-1.25 3.68 3.68 0 0 1 1.24-.84 3.91 3.91 0 0 1 1.58-.31 3.86 3.86 0 0 1 1.53.29 3.53 3.53 0 0 1 2 2 3.93 3.93 0 0 1 .3 1.55v.52h-6.62a2.69 2.69 0 0 0 .9 1.77 2.7 2.7 0 0 0 .87.51 3.21 3.21 0 0 0 1.1.18 2.89 2.89 0 0 0 1.53-.38 2.83 2.83 0 0 0 1-1.08l1 .58a4.25 4.25 0 0 1-1.42 1.41 4 4 0 0 1-2.11.52zm0-6.85a2.84 2.84 0 0 0-1 .18 2.57 2.57 0 0 0-.83.49 2.74 2.74 0 0 0-.61.74 2.87 2.87 0 0 0-.34.93h5.47a2.53 2.53 0 0 0-2.67-2.34zM52.89 60.89h1.29l5.82 8.4v-8.4h1.1v10.22h-1.21L54 62.63v8.48h-1.11zM66.85 71.27A4.33 4.33 0 0 1 65.2 71a3.79 3.79 0 0 1-1.26-.83 3.58 3.58 0 0 1-.8-1.24 4.13 4.13 0 0 1-.28-1.54 4 4 0 0 1 .3-1.56 3.85 3.85 0 0 1 .84-1.28 3.68 3.68 0 0 1 1.24-.84 3.91 3.91 0 0 1 1.58-.31 3.86 3.86 0 0 1 1.53.29 3.53 3.53 0 0 1 2 2 3.93 3.93 0 0 1 .3 1.55v.52H64a2.71 2.71 0 0 0 .29 1 2.93 2.93 0 0 0 .61.78 2.7 2.7 0 0 0 .87.51 3.21 3.21 0 0 0 1.1.18 2.92 2.92 0 0 0 1.53-.38 2.83 2.83 0 0 0 1-1.08l1 .58a4.25 4.25 0 0 1-1.42 1.41 4 4 0 0 1-2.13.51zm0-6.85a2.8 2.8 0 0 0-1 .18 2.57 2.57 0 0 0-.83.49 2.74 2.74 0 0 0-.61.74 2.87 2.87 0 0 0-.34.93h5.47a2.53 2.53 0 0 0-2.67-2.34zM71.5 63.55H73v-1.66l1.13-.73v2.39h2.21v1H74.1v4.25a1.47 1.47 0 0 0 .3 1 1.09 1.09 0 0 0 .79.31 1.22 1.22 0 0 0 .87-.37l.6.91a2.29 2.29 0 0 1-.7.39 2.26 2.26 0 0 1-.85.15 2.13 2.13 0 0 1-1.6-.57 2.6 2.6 0 0 1-.51-1.79v-4.26h-1.5zM77.39 63.55h1.21l1.9 6 2.31-6h1.06l2.26 6 2-6h1.19l-2.62 7.56h-1l-2.33-6-2.32 6h-1.18zM94 71.27a4 4 0 0 1-1.55-.3 3.68 3.68 0 0 1-1.24-.84 4.09 4.09 0 0 1-.83-1.24 4 4 0 0 1-.3-1.56 4 4 0 0 1 .3-1.54 4 4 0 0 1 .84-1.26A3.88 3.88 0 0 1 94 63.4a4 4 0 0 1 1.55.3 3.83 3.83 0 0 1 2.09 2.09 4.1 4.1 0 0 1 0 3.08 3.82 3.82 0 0 1-.84 1.25 4.12 4.12 0 0 1-1.24.84 4 4 0 0 1-1.56.31zm0-1.1a2.84 2.84 0 0 0 1.1-.21 2.75 2.75 0 0 0 .88-.6 2.8 2.8 0 0 0 .59-.91 2.94 2.94 0 0 0 .21-1.12 3 3 0 0 0-.21-1.12 2.7 2.7 0 0 0-.57-.91 2.84 2.84 0 0 0-3.07-.61 2.75 2.75 0 0 0-1.45 1.52 3 3 0 0 0-.21 1.12 3 3 0 0 0 .21 1.14 2.69 2.69 0 0 0 .58.89 2.64 2.64 0 0 0 2 .81zM99.68 63.55h1.11V65a2.1 2.1 0 0 1 .79-1.15 2.28 2.28 0 0 1 1.36-.39 2.35 2.35 0 0 1 1.26.28l-.47 1.09a1.39 1.39 0 0 0-.39-.17 2.08 2.08 0 0 0-.54-.07 1.9 1.9 0 0 0-1.47.57 2.7 2.7 0 0 0-.52 1.83v4.14h-1.13zM108.36 67.43l-1.61 1.71v2h-1.13v-11h1.13v7.74l4-4.27h1.45l-3 3.17 3.18 4.39H111z"/></g></g></svg>